User Type,Username,Date,Text
,SnufHazTorrentz,2012-05-20T01:47Z,"Tnx Dibya, pretty fast upload.

Notes from me:
1. It has logo (for those who don't know WEB-DL = logofree, HDTV = logo)

2.  Mediainfo for those who care
The.Legend.Of.Korra.S01E07.The.Aftermath.720p.HDTV.h264-OOO

General
Unique ID                                : 248685975887371588593039254631210789267 (0xBB172D40DE5780309F65EE570E3FA993)
Format                                   : Matroska
Format version                           : Version 2
File size                                : 847 MiB
Duration                                 : 23mn 55s
Overall bit rate                         : 4 950 Kbps
Encoded date                             : UTC 2012-05-19 17:14:34
Writing application                      : mkvmerge v5.2.1 ('A Far Off Place') built on Jan  2 2012 23:21:10
Writing library                          : libebml v1.2.3 + libmatroska v1.3.0

Video
ID                                       : 1
Format                                   : AVC
Format/Info                              : Advanced Video Codec
Format profile                           : High@L4.1
Format settings, CABAC                   : Yes
Format settings, ReFrames                : 4 frames
Codec ID                                 : V_MPEG4/ISO/AVC
Duration                                 : 23mn 55s
Bit rate                                 : 4 502 Kbps
Width                                    : 1 280 pixels
Height                                   : 720 pixels
Display aspect ratio                     : 16:9
Frame rate                               : 23.976 fps
Color space                              : YUV
Chroma subsampling                       : 4:2:0
Bit depth                                : 8 bits
Scan type                                : Progressive
Bits/(Pixel*Frame)                       : 0.204
Stream size                              : 754 MiB (89%)
Writing library                          : x264 core 120 r2164 da19765
Encoding settings                        : cabac=1 / ref=3 / deblock=1:1:0 / analyse=0x3:0x113 / me=hex / subme=6 / psy=1 / psy_rd=1.00:0.00 / mixed_ref=1 / me_range=16 / chroma_me=1 / trellis=1 / 8x8dct=1 / cqm=0 / deadzone=21,11 / fast_pskip=1 / chroma_qp_offset=-4 / threads=6 / sliced_threads=0 / nr=0 / decimate=1 / interlaced=0 / bluray_compat=0 / constrained_intra=0 / bframes=3 / b_pyramid=2 / b_adapt=1 / b_bias=0 / direct=1 / weightb=1 / open_gop=0 / weightp=2 / keyint=240 / keyint_min=23 / scenecut=40 / intra_refresh=0 / rc_lookahead=40 / rc=2pass / mbtree=1 / bitrate=4502 / ratetol=1.0 / qcomp=0.60 / qpmin=10 / qpmax=51 / qpstep=4 / cplxblur=20.0 / qblur=0.5 / ip_ratio=1.40 / aq=1:1.00
Default                                  : Yes
Forced                                   : No

Audio
ID                                       : 2
Format                                   : AC-3
Format/Info                              : Audio Coding 3
Mode extension                           : CM (complete main)
Format settings, Endianness              : Big
Codec ID                                 : A_AC3
Duration                                 : 23mn 55s
Bit rate mode                            : Constant
Bit rate                                 : 448 Kbps
Channel(s)                               : 2 channels
Channel positions                        : Front: L R
Sampling rate                            : 48.0 KHz
Bit depth                                : 16 bits
Compression mode                         : Lossy
Stream size                              : 76.7 MiB (9%)
Default                                  : Yes
Forced                                   : No"
,juanDao,2012-05-22T16:44Z,Downloading! Thanxs
,Wolf2884,2012-05-28T19:10Z,A little over 9 minutes. Thanks again.
